{
	"asset":{
		"generator":"Khronos glTF Blender I/O v3.5.30",
		"version":"2.0"
	},
	"scene":0,
	"scenes":[
		{
			"name":"Scene",
			"nodes":[
				0,
				1
			]
		}
	],
	"nodes":[
		{
			"mesh":0,
			"name":"Donut1",
			"rotation":[
				0.7071068286895752,
				0,
				0,
				0.7071068286895752
			]
		},
		{
			"camera":0,
			"name":"Camera",
			"rotation":[
				-0.20973928272724152,
				0.4910617172718048,
				0.11511872708797455,
				0.8376249074935913
			],
			"translation":[
				1.7950568199157715,
				1.042940378189087,
				1.0126839876174927
			]
		}
	],
	"cameras":[
		{
			"name":"Camera.001",
			"perspective":{
				"aspectRatio":1.7777777777777777,
				"yfov":0.39959652046304894,
				"zfar":1000,
				"znear":0.10000000149011612
			},
			"type":"perspective"
		}
	],
	"materials":[
		{
			"alphaMode":"BLEND",
			"doubleSided":true,
			"name":"LightYellow",
			"pbrMetallicRoughness":{
				"baseColorFactor":[
					0.45752599835395813,
					0.3235290050506592,
					0.17092500627040863,
					0
				],
				"metallicFactor":0,
				"roughnessFactor":0.690034806728363
			}
		},
		{
			"alphaMode":"BLEND",
			"doubleSided":true,
			"name":"PalePink",
			"pbrMetallicRoughness":{
				"baseColorFactor":[
					0.5070589780807495,
					0.16568200290203094,
					0.30907899141311646,
					0
				],
				"metallicFactor":0,
				"roughnessFactor":0.690034806728363
			}
		},
		{
			"alphaMode":"BLEND",
			"doubleSided":true,
			"name":"Red",
			"pbrMetallicRoughness":{
				"baseColorFactor":[
					0.45752599835395813,
					0.0846870020031929,
					0.05452600121498108,
					0
				],
				"metallicFactor":0,
				"roughnessFactor":0.690034806728363
			}
		},
		{
			"alphaMode":"BLEND",
			"doubleSided":true,
			"name":"Blue",
			"pbrMetallicRoughness":{
				"baseColorFactor":[
					0.0627020001411438,
					0.13862000405788422,
					0.34237900376319885,
					0
				],
				"metallicFactor":0,
				"roughnessFactor":0.690034806728363
			}
		},
		{
			"alphaMode":"BLEND",
			"doubleSided":true,
			"name":"Green",
			"pbrMetallicRoughness":{
				"baseColorFactor":[
					0.14724400639533997,
					0.239546000957489,
					0.0744670033454895,
					0
				],
				"metallicFactor":0,
				"roughnessFactor":0.690034806728363
			}
		}
	],
	"meshes":[
		{
			"name":"Donut1",
			"primitives":[
				{
					"attributes":{
						"POSITION":0,
						"NORMAL":1
					},
					"indices":2,
					"material":0
				},
				{
					"attributes":{
						"POSITION":3,
						"NORMAL":4
					},
					"indices":5,
					"material":1
				},
				{
					"attributes":{
						"POSITION":6,
						"NORMAL":7
					},
					"indices":8,
					"material":2
				},
				{
					"attributes":{
						"POSITION":9,
						"NORMAL":10
					},
					"indices":11,
					"material":3
				},
				{
					"attributes":{
						"POSITION":12,
						"NORMAL":13
					},
					"indices":14,
					"material":4
				}
			]
		}
	],
	"accessors":[
		{
			"bufferView":0,
			"componentType":5126,
			"count":592,
			"max":[
				0.4302330017089844,
				0.433789998292923,
				0.1274770051240921
			],
			"min":[
				-0.4288170039653778,
				-0.42606401443481445,
				-0.06287699937820435
			],
			"type":"VEC3"
		},
		{
			"bufferView":1,
			"componentType":5126,
			"count":592,
			"type":"VEC3"
		},
		{
			"bufferView":2,
			"componentType":5123,
			"count":888,
			"type":"SCALAR"
		},
		{
			"bufferView":3,
			"componentType":5126,
			"count":464,
			"max":[
				0.42888200283050537,
				0.4437130093574524,
				0.02453700080513954
			],
			"min":[
				-0.4148319959640503,
				-0.4235230088233948,
				-0.1480260044336319
			],
			"type":"VEC3"
		},
		{
			"bufferView":4,
			"componentType":5126,
			"count":464,
			"type":"VEC3"
		},
		{
			"bufferView":5,
			"componentType":5123,
			"count":696,
			"type":"SCALAR"
		},
		{
			"bufferView":6,
			"componentType":5126,
			"count":384,
			"max":[
				0.4076400101184845,
				0.42005398869514465,
				-0.03250199928879738
			],
			"min":[
				-0.4097039997577667,
				-0.33837199211120605,
				-0.16390599310398102
			],
			"type":"VEC3"
		},
		{
			"bufferView":7,
			"componentType":5126,
			"count":384,
			"type":"VEC3"
		},
		{
			"bufferView":8,
			"componentType":5123,
			"count":576,
			"type":"SCALAR"
		},
		{
			"bufferView":9,
			"componentType":5126,
			"count":288,
			"max":[
				0.3479579985141754,
				0.37725698947906494,
				-0.06451000273227692
			],
			"min":[
				-0.37447500228881836,
				-0.4161370098590851,
				-0.15709200501441956
			],
			"type":"VEC3"
		},
		{
			"bufferView":10,
			"componentType":5126,
			"count":288,
			"type":"VEC3"
		},
		{
			"bufferView":11,
			"componentType":5123,
			"count":432,
			"type":"SCALAR"
		},
		{
			"bufferView":12,
			"componentType":5126,
			"count":240,
			"max":[
				0.41943100094795227,
				0.3568750023841858,
				-0.05273500084877014
			],
			"min":[
				-0.4025999903678894,
				-0.25003400444984436,
				-0.15890200436115265
			],
			"type":"VEC3"
		},
		{
			"bufferView":13,
			"componentType":5126,
			"count":240,
			"type":"VEC3"
		},
		{
			"bufferView":14,
			"componentType":5123,
			"count":360,
			"type":"SCALAR"
		}
	],
	"bufferViews":[
		{
			"buffer":0,
			"byteLength":7104,
			"byteOffset":0,
			"target":34962
		},
		{
			"buffer":0,
			"byteLength":7104,
			"byteOffset":7104,
			"target":34962
		},
		{
			"buffer":0,
			"byteLength":1776,
			"byteOffset":14208,
			"target":34963
		},
		{
			"buffer":0,
			"byteLength":5568,
			"byteOffset":15984,
			"target":34962
		},
		{
			"buffer":0,
			"byteLength":5568,
			"byteOffset":21552,
			"target":34962
		},
		{
			"buffer":0,
			"byteLength":1392,
			"byteOffset":27120,
			"target":34963
		},
		{
			"buffer":0,
			"byteLength":4608,
			"byteOffset":28512,
			"target":34962
		},
		{
			"buffer":0,
			"byteLength":4608,
			"byteOffset":33120,
			"target":34962
		},
		{
			"buffer":0,
			"byteLength":1152,
			"byteOffset":37728,
			"target":34963
		},
		{
			"buffer":0,
			"byteLength":3456,
			"byteOffset":38880,
			"target":34962
		},
		{
			"buffer":0,
			"byteLength":3456,
			"byteOffset":42336,
			"target":34962
		},
		{
			"buffer":0,
			"byteLength":864,
			"byteOffset":45792,
			"target":34963
		},
		{
			"buffer":0,
			"byteLength":2880,
			"byteOffset":46656,
			"target":34962
		},
		{
			"buffer":0,
			"byteLength":2880,
			"byteOffset":49536,
			"target":34962
		},
		{
			"buffer":0,
			"byteLength":720,
			"byteOffset":52416,
			"target":34963
		}
	],
	"buffers":[
		{
			"byteLength":53136,
			"uri":"data:application/octet-stream;base64,"
		}
	]
}
