{
	"asset":{
		"generator":"Khronos glTF Blender I/O v3.6.27",
		"version":"2.0"
	},
	"extensionsUsed":[
		"KHR_lights_punctual"
	],
	"extensionsRequired":[
		"KHR_lights_punctual"
	],
	"extensions":{
		"KHR_lights_punctual":{
			"lights":[
				{
					"color":[
						1,
						1,
						1
					],
					"intensity":54351.41306588226,
					"type":"point",
					"name":"Light",
					"extras":{
						"intensity":3.0,
						"decay":2.0,
						"distance":10.0
					}
				},
				{
					"color":[
						1,
						1,
						1
					],
					"intensity":54351.41306588226,
					"type":"point",
					"name":"Light.001",
					"extras":{
						"intensity":4.0,
						"decay":3.0,
						"distance":10.0
					}
				},
				{
					"color":[
						1,
						1,
						1
					],
					"intensity":54351.41306588226,
					"type":"point",
					"name":"Light.002",
					"extras":{
						"intensity":3.0,
						"decay":2.0,
						"distance":20.0
					}
				}
			]
		}
	},
	"scene":0,
	"scenes":[
		{
			"name":"Scene",
			"nodes":[
				0,
				1,
				2,
				3,
				4,
				5,
				6,
				7,
				8,
				9,
				10,
				11,
				12,
				13
			]
		}
	],
	"nodes":[
		{
			"extensions":{
				"KHR_lights_punctual":{
					"light":0
				}
			},
			"name":"Light",
			"rotation":[
				-0.28416627645492554,
				0.7269423007965088,
				0.34203392267227173,
				0.5232754945755005
			],
			"translation":[
				-3.93914794921875,
				5.903861999511719,
				9.435650825500488
			]
		},
		{
			"camera":0,
			"name":"Camera",
			"rotation":[
				-0.21490168571472168,
				0.03997575119137764,
				0.00880416389554739,
				0.9757775068283081
			],
			"translation":[
				1.2280476093292236,
				6.755553245544434,
				14.672527313232422
			]
		},
		{
			"mesh":0,
			"name":"C\u00edrculo",
			"rotation":[
				0.7071068286895752,
				0,
				0,
				0.7071068286895752
			]
		},
		{
			"mesh":1,
			"name":"C\u00edrculo.001",
			"rotation":[
				0.7071068286895752,
				0,
				0,
				0.7071068286895752
			]
		},
		{
			"mesh":2,
			"name":"C\u00edrculo.002",
			"rotation":[
				0.7071068286895752,
				0,
				0,
				0.7071068286895752
			]
		},
		{
			"mesh":3,
			"name":"C\u00edrculo.003",
			"rotation":[
				0.7071068286895752,
				0,
				0,
				0.7071068286895752
			]
		},
		{
			"mesh":4,
			"name":"C\u00edrculo.004",
			"rotation":[
				0.7071068286895752,
				0,
				0,
				0.7071068286895752
			]
		},
		{
			"mesh":5,
			"name":"C\u00edrculo.005",
			"rotation":[
				0.7071068286895752,
				0,
				0,
				0.7071068286895752
			]
		},
		{
			"mesh":6,
			"name":"C\u00edrculo.006",
			"rotation":[
				0.7071068286895752,
				0,
				0,
				0.7071068286895752
			]
		},
		{
			"mesh":7,
			"name":"C\u00edrculo.007",
			"rotation":[
				0.7071068286895752,
				0,
				0,
				0.7071068286895752
			]
		},
		{
			"mesh":8,
			"name":"C\u00edrculo.009",
			"rotation":[
				0.7071068286895752,
				0,
				0,
				0.7071068286895752
			]
		},
		{
			"mesh":9,
			"name":"Plane",
			"scale":[
				5.097474575042725,
				5.097474575042725,
				5.097474575042725
			],
			"translation":[
				0,
				-1.332675814628601,
				0
			]
		},
		{
			"extensions":{
				"KHR_lights_punctual":{
					"light":1
				}
			},
			"name":"Light.001",
			"rotation":[
				-0.28416627645492554,
				0.7269423007965088,
				0.34203392267227173,
				0.5232754945755005
			],
			"translation":[
				8.874935150146484,
				5.903861999511719,
				8.275527954101562
			]
		},
		{
			"extensions":{
				"KHR_lights_punctual":{
					"light":2
				}
			},
			"name":"Light.002",
			"rotation":[
				-0.28416627645492554,
				0.7269423007965088,
				0.34203392267227173,
				0.5232754945755005
			],
			"translation":[
				1.0177407264709473,
				5.396530628204346,
				11.38676643371582
			]
		}
	],
	"cameras":[
		{
			"name":"Camera",
			"perspective":{
				"aspectRatio":1.7777777777777777,
				"yfov":0.39959652046304894,
				"zfar":100,
				"znear":0.10000000149011612
			},
			"type":"perspective"
		}
	],
	"materials":[
		{
			"alphaMode":"BLEND",
			"doubleSided":true,
			"extras":{
				"refractiveIndex":1.5
			},
			"name":"glass",
			"pbrMetallicRoughness":{
				"baseColorFactor":[
					0.710552990436554,
					0.710552990436554,
					0.710552990436554,
					0.17401576042175293
				],
				"metallicFactor":0,
				"roughnessFactor":0
			}
		},
		{
			"doubleSided":true,
			"name":"wine",
			"pbrMetallicRoughness":{
				"baseColorFactor":[
					0.4969229996204376,
					0.0011289999820291996,
					0,
					0.6062991619110107
				],
				"metallicFactor":0,
				"roughnessFactor":0.5
			}
		},
		{
			"doubleSided":true,
			"name":"Material.002",
			"pbrMetallicRoughness":{
				"baseColorTexture":{
					"index":0
				},
				"metallicFactor":0.12999999523162842,
				"roughnessFactor":0.22440946102142334
			}
		}
	],
	"meshes":[
		{
			"name":"C\u00edrculo",
			"primitives":[
				{
					"attributes":{
						"POSITION":0,
						"NORMAL":1,
						"TEXCOORD_0":2
					},
					"indices":3,
					"material":0
				}
			]
		},
		{
			"name":"C\u00edrculo.001",
			"primitives":[
				{
					"attributes":{
						"POSITION":4,
						"NORMAL":5,
						"TEXCOORD_0":6
					},
					"indices":3,
					"material":0
				}
			]
		},
		{
			"name":"C\u00edrculo.002",
			"primitives":[
				{
					"attributes":{
						"POSITION":7,
						"NORMAL":8,
						"TEXCOORD_0":9
					},
					"indices":3,
					"material":0
				}
			]
		},
		{
			"name":"C\u00edrculo.003",
			"primitives":[
				{
					"attributes":{
						"POSITION":10,
						"NORMAL":11,
						"TEXCOORD_0":12
					},
					"indices":3,
					"material":0
				}
			]
		},
		{
			"name":"C\u00edrculo.004",
			"primitives":[
				{
					"attributes":{
						"POSITION":13,
						"NORMAL":14,
						"TEXCOORD_0":15
					},
					"indices":3,
					"material":0
				}
			]
		},
		{
			"name":"C\u00edrculo.005",
			"primitives":[
				{
					"attributes":{
						"POSITION":16,
						"NORMAL":17,
						"TEXCOORD_0":18
					},
					"indices":3,
					"material":0
				}
			]
		},
		{
			"name":"C\u00edrculo.006",
			"primitives":[
				{
					"attributes":{
						"POSITION":19,
						"NORMAL":20,
						"TEXCOORD_0":21
					},
					"indices":22,
					"material":0
				}
			]
		},
		{
			"name":"C\u00edrculo.007",
			"primitives":[
				{
					"attributes":{
						"POSITION":23,
						"NORMAL":24,
						"TEXCOORD_0":25
					},
					"indices":26,
					"material":1
				}
			]
		},
		{
			"name":"C\u00edrculo.009",
			"primitives":[
				{
					"attributes":{
						"POSITION":27,
						"NORMAL":28,
						"TEXCOORD_0":29
					},
					"indices":26,
					"material":1
				}
			]
		},
		{
			"name":"Plane",
			"primitives":[
				{
					"attributes":{
						"POSITION":30,
						"NORMAL":31,
						"TEXCOORD_0":32
					},
					"indices":33,
					"material":2
				}
			]
		}
	],
	"textures":[
		{
			"sampler":0,
			"source":0
		}
	],
	"images":[
		{
			"bufferView":34,
			"mimeType":"image/jpeg",
			"name":"wood"
		}
	],
	"accessors":[
		{
			"bufferView":0,
			"componentType":5126,
			"count":1293,
			"max":[
				0.9279419779777527,
				0.9270960092544556,
				1.3013520240783691
			],
			"min":[
				-0.9262480139732361,
				-0.9269030094146729,
				-1.6543630361557007
			],
			"type":"VEC3"
		},
		{
			"bufferView":1,
			"componentType":5126,
			"count":1293,
			"type":"VEC3"
		},
		{
			"bufferView":2,
			"componentType":5126,
			"count":1293,
			"type":"VEC2"
		},
		{
			"bufferView":3,
			"componentType":5123,
			"count":6768,
			"type":"SCALAR"
		},
		{
			"bufferView":4,
			"componentType":5126,
			"count":1293,
			"max":[
				3.861470937728882,
				-0.3820819854736328,
				1.3013520240783691
			],
			"min":[
				2.0072810649871826,
				-2.2360808849334717,
				-1.6543630361557007
			],
			"type":"VEC3"
		},
		{
			"bufferView":5,
			"componentType":5126,
			"count":1293,
			"type":"VEC3"
		},
		{
			"bufferView":6,
			"componentType":5126,
			"count":1293,
			"type":"VEC2"
		},
		{
			"bufferView":7,
			"componentType":5126,
			"count":1293,
			"max":[
				1.7764830589294434,
				-2.273118019104004,
				1.3013520240783691
			],
			"min":[
				-0.0777060016989708,
				-4.127117156982422,
				-1.6543630361557007
			],
			"type":"VEC3"
		},
		{
			"bufferView":8,
			"componentType":5126,
			"count":1293,
			"type":"VEC3"
		},
		{
			"bufferView":9,
			"componentType":5126,
			"count":1293,
			"type":"VEC2"
		},
		{
			"bufferView":10,
			"componentType":5126,
			"count":1293,
			"max":[
				-1.1812900304794312,
				-1.6912599802017212,
				1.3013520240783691
			],
			"min":[
				-3.03548002243042,
				-3.5452589988708496,
				-1.6543630361557007
			],
			"type":"VEC3"
		},
		{
			"bufferView":11,
			"componentType":5126,
			"count":1293,
			"type":"VEC3"
		},
		{
			"bufferView":12,
			"componentType":5126,
			"count":1293,
			"type":"VEC2"
		},
		{
			"bufferView":13,
			"componentType":5126,
			"count":1293,
			"max":[
				-2.3207600116729736,
				1.2907569408416748,
				1.3013520240783691
			],
			"min":[
				-4.174950122833252,
				-0.5632420182228088,
				-1.6543630361557007
			],
			"type":"VEC3"
		},
		{
			"bufferView":14,
			"componentType":5126,
			"count":1293,
			"type":"VEC3"
		},
		{
			"bufferView":15,
			"componentType":5126,
			"count":1293,
			"type":"VEC2"
		},
		{
			"bufferView":16,
			"componentType":5126,
			"count":1293,
			"max":[
				-0.2357719987630844,
				3.6181859970092773,
				1.3013520240783691
			],
			"min":[
				-2.0899620056152344,
				1.764186978340149,
				-1.6543630361557007
			],
			"type":"VEC3"
		},
		{
			"bufferView":17,
			"componentType":5126,
			"count":1293,
			"type":"VEC3"
		},
		{
			"bufferView":18,
			"componentType":5126,
			"count":1293,
			"type":"VEC2"
		},
		{
			"bufferView":19,
			"componentType":5126,
			"count":1130,
			"max":[
				3.231126070022583,
				2.8666200637817383,
				1.3013520240783691
			],
			"min":[
				1.3769359588623047,
				1.0126210451126099,
				-1.6543630361557007
			],
			"type":"VEC3"
		},
		{
			"bufferView":20,
			"componentType":5126,
			"count":1130,
			"type":"VEC3"
		},
		{
			"bufferView":21,
			"componentType":5126,
			"count":1130,
			"type":"VEC2"
		},
		{
			"bufferView":22,
			"componentType":5123,
			"count":6768,
			"type":"SCALAR"
		},
		{
			"bufferView":23,
			"componentType":5126,
			"count":145,
			"max":[
				0.6685060262680054,
				0.6668339967727661,
				-0.4949989914894104
			],
			"min":[
				-0.6654970049858093,
				-0.6629859805107117,
				-1.366569995880127
			],
			"type":"VEC3"
		},
		{
			"bufferView":24,
			"componentType":5126,
			"count":145,
			"type":"VEC3"
		},
		{
			"bufferView":25,
			"componentType":5126,
			"count":145,
			"type":"VEC2"
		},
		{
			"bufferView":26,
			"componentType":5123,
			"count":714,
			"type":"SCALAR"
		},
		{
			"bufferView":27,
			"componentType":5126,
			"count":145,
			"max":[
				-2.5704379081726074,
				1.0206680297851562,
				-0.4949989914894104
			],
			"min":[
				-3.9044411182403564,
				-0.3091520071029663,
				-1.366569995880127
			],
			"type":"VEC3"
		},
		{
			"bufferView":28,
			"componentType":5126,
			"count":145,
			"type":"VEC3"
		},
		{
			"bufferView":29,
			"componentType":5126,
			"count":145,
			"type":"VEC2"
		},
		{
			"bufferView":30,
			"componentType":5126,
			"count":4,
			"max":[
				1,
				0,
				1
			],
			"min":[
				-1,
				0,
				-1
			],
			"type":"VEC3"
		},
		{
			"bufferView":31,
			"componentType":5126,
			"count":4,
			"type":"VEC3"
		},
		{
			"bufferView":32,
			"componentType":5126,
			"count":4,
			"type":"VEC2"
		},
		{
			"bufferView":33,
			"componentType":5123,
			"count":6,
			"type":"SCALAR"
		}
	],
	"bufferViews":[
		{
			"buffer":0,
			"byteLength":15516,
			"byteOffset":0,
			"target":34962
		},
		{
			"buffer":0,
			"byteLength":15516,
			"byteOffset":15516,
			"target":34962
		},
		{
			"buffer":0,
			"byteLength":10344,
			"byteOffset":31032,
			"target":34962
		},
		{
			"buffer":0,
			"byteLength":13536,
			"byteOffset":41376,
			"target":34963
		},
		{
			"buffer":0,
			"byteLength":15516,
			"byteOffset":54912,
			"target":34962
		},
		{
			"buffer":0,
			"byteLength":15516,
			"byteOffset":70428,
			"target":34962
		},
		{
			"buffer":0,
			"byteLength":10344,
			"byteOffset":85944,
			"target":34962
		},
		{
			"buffer":0,
			"byteLength":15516,
			"byteOffset":96288,
			"target":34962
		},
		{
			"buffer":0,
			"byteLength":15516,
			"byteOffset":111804,
			"target":34962
		},
		{
			"buffer":0,
			"byteLength":10344,
			"byteOffset":127320,
			"target":34962
		},
		{
			"buffer":0,
			"byteLength":15516,
			"byteOffset":137664,
			"target":34962
		},
		{
			"buffer":0,
			"byteLength":15516,
			"byteOffset":153180,
			"target":34962
		},
		{
			"buffer":0,
			"byteLength":10344,
			"byteOffset":168696,
			"target":34962
		},
		{
			"buffer":0,
			"byteLength":15516,
			"byteOffset":179040,
			"target":34962
		},
		{
			"buffer":0,
			"byteLength":15516,
			"byteOffset":194556,
			"target":34962
		},
		{
			"buffer":0,
			"byteLength":10344,
			"byteOffset":210072,
			"target":34962
		},
		{
			"buffer":0,
			"byteLength":15516,
			"byteOffset":220416,
			"target":34962
		},
		{
			"buffer":0,
			"byteLength":15516,
			"byteOffset":235932,
			"target":34962
		},
		{
			"buffer":0,
			"byteLength":10344,
			"byteOffset":251448,
			"target":34962
		},
		{
			"buffer":0,
			"byteLength":13560,
			"byteOffset":261792,
			"target":34962
		},
		{
			"buffer":0,
			"byteLength":13560,
			"byteOffset":275352,
			"target":34962
		},
		{
			"buffer":0,
			"byteLength":9040,
			"byteOffset":288912,
			"target":34962
		},
		{
			"buffer":0,
			"byteLength":13536,
			"byteOffset":297952,
			"target":34963
		},
		{
			"buffer":0,
			"byteLength":1740,
			"byteOffset":311488,
			"target":34962
		},
		{
			"buffer":0,
			"byteLength":1740,
			"byteOffset":313228,
			"target":34962
		},
		{
			"buffer":0,
			"byteLength":1160,
			"byteOffset":314968,
			"target":34962
		},
		{
			"buffer":0,
			"byteLength":1428,
			"byteOffset":316128,
			"target":34963
		},
		{
			"buffer":0,
			"byteLength":1740,
			"byteOffset":317556,
			"target":34962
		},
		{
			"buffer":0,
			"byteLength":1740,
			"byteOffset":319296,
			"target":34962
		},
		{
			"buffer":0,
			"byteLength":1160,
			"byteOffset":321036,
			"target":34962
		},
		{
			"buffer":0,
			"byteLength":48,
			"byteOffset":322196,
			"target":34962
		},
		{
			"buffer":0,
			"byteLength":48,
			"byteOffset":322244,
			"target":34962
		},
		{
			"buffer":0,
			"byteLength":32,
			"byteOffset":322292,
			"target":34962
		},
		{
			"buffer":0,
			"byteLength":12,
			"byteOffset":322324,
			"target":34963
		},
		{
			"buffer":0,
			"byteLength":3296,
			"byteOffset":322336
		}
	],
	"samplers":[
		{
			"magFilter":9729,
			"minFilter":9987
		}
	],
	"buffers":[
		{
			"byteLength":325632,
			"uri":"data:application/octet-stream;base64,"
		}
	]
}
