{
	"asset":{
		"generator":"Khronos glTF Blender I/O v3.5.30",
		"version":"2.0"
	},
	"extensionsUsed":[
		"KHR_lights_punctual"
	],
	"extensionsRequired":[
		"KHR_lights_punctual"
	],
	"extensions":{
		"KHR_lights_punctual":{
			"lights":[
				{
					"color":[
						1,
						1,
						1
					],
					"intensity":543.5141306588226,
					"type":"point",
					"name":"Point",
					"extras":{
						"intensity":1.2999999523162842,
						"distance":20.0,
						"decay":2.0
					}
				},
				{
					"color":[
						1,
						1,
						1
					],
					"intensity":543.5141306588226,
					"type":"point",
					"name":"Point.001",
					"extras":{
						"intensity":1.0,
						"distance":20.0,
						"decay":3.0
					}
				},
				{
					"color":[
						1,
						1,
						1
					],
					"intensity":543.5141306588226,
					"type":"point",
					"name":"Point.002",
					"extras":{
						"intensity":1.5,
						"distance":20.0,
						"decay":2.0
					}
				},
				{
					"color":[
						1,
						1,
						1
					],
					"intensity":543.5141306588226,
					"type":"point",
					"name":"Point.003",
					"extras":{
						"intensity":1.7000000476837158,
						"distance":20.0,
						"decay":2.0
					}
				}
			]
		}
	},
	"scene":0,
	"scenes":[
		{
			"name":"Scene",
			"nodes":[
				0,
				1,
				2,
				3,
				4,
				5,
				6
			]
		}
	],
	"nodes":[
		{
			"mesh":0,
			"name":"Porsche_911_GT2",
			"rotation":[
				0.7071068286895752,
				0,
				0,
				0.7071068286895752
			]
		},
		{
			"mesh":1,
			"name":"Plane",
			"scale":[
				2.624110698699951,
				2.624110698699951,
				2.624110698699951
			],
			"translation":[
				0,
				-0.6396228671073914,
				0
			]
		},
		{
			"camera":0,
			"name":"Camera",
			"rotation":[
				-0.11118240654468536,
				0.841009795665741,
				0.19722019135951996,
				0.4913707673549652
			],
			"translation":[
				8.190725326538086,
				4.2145843505859375,
				-4.5148773193359375
			]
		},
		{
			"extensions":{
				"KHR_lights_punctual":{
					"light":0
				}
			},
			"name":"Point",
			"rotation":[
				-0.7071068286895752,
				0,
				0,
				0.7071068286895752
			],
			"translation":[
				-2.559904098510742,
				2.019845485687256,
				-4.458030700683594
			]
		},
		{
			"extensions":{
				"KHR_lights_punctual":{
					"light":1
				}
			},
			"name":"Point.001",
			"rotation":[
				-0.7071068286895752,
				0,
				0,
				0.7071068286895752
			],
			"translation":[
				-4.027793884277344,
				2.019845485687256,
				1.259044885635376
			]
		},
		{
			"extensions":{
				"KHR_lights_punctual":{
					"light":2
				}
			},
			"name":"Point.002",
			"rotation":[
				-0.7071068286895752,
				0,
				0,
				0.7071068286895752
			],
			"translation":[
				4.927468776702881,
				2.019845485687256,
				1.729149341583252
			]
		},
		{
			"extensions":{
				"KHR_lights_punctual":{
					"light":3
				}
			},
			"name":"Point.003",
			"rotation":[
				-0.7071068286895752,
				0,
				0,
				0.7071068286895752
			],
			"translation":[
				3.7564704418182373,
				2.019845485687256,
				-3.5761055946350098
			]
		}
	],
	"cameras":[
		{
			"name":"Camera.001",
			"perspective":{
				"aspectRatio":1.7777777777777777,
				"yfov":0.39959652046304894,
				"zfar":1000,
				"znear":0.10000000149011612
			},
			"type":"perspective"
		}
	],
	"materials":[
		{
			"doubleSided":true,
			"name":"Material.001",
			"pbrMetallicRoughness":{
				"baseColorTexture":{
					"index":0
				},
				"metallicFactor":0,
				"roughnessFactor":0.5
			}
		},
		{
			"doubleSided":true,
			"name":"Material.002",
			"pbrMetallicRoughness":{
				"baseColorFactor":[
					0,
					0.347236692905426,
					0.8000000715255737,
					1
				],
				"metallicFactor":0,
				"roughnessFactor":0.5
			}
		}
	],
	"meshes":[
		{
			"name":"Porsche_911_GT2",
			"primitives":[
				{
					"attributes":{
						"POSITION":0,
						"TEXCOORD_0":1,
						"NORMAL":2
					},
					"indices":3,
					"material":0
				}
			]
		},
		{
			"name":"Plane",
			"primitives":[
				{
					"attributes":{
						"POSITION":4,
						"TEXCOORD_0":5,
						"NORMAL":6
					},
					"indices":7,
					"material":1
				}
			]
		}
	],
	"textures":[
		{
			"sampler":0,
			"source":0
		}
	],
	"images":[
		{
			"bufferView":4,
			"mimeType":"image/png",
			"name":"0000"
		}
	],
	"accessors":[
		{
			"bufferView":0,
			"componentType":5126,
			"count":35058,
			"max":[
				1.7517199516296387,
				2.1037371158599854,
				0.6058850288391113
			],
			"min":[
				-1.7682770490646362,
				-2.0560340881347656,
				-0.6659780144691467
			],
			"type":"VEC3"
		},
		{
			"bufferView":1,
			"componentType":5126,
			"count":35058,
			"type":"VEC2"
		},
		{
			"bufferView":2,
			"componentType":5126,
			"count":35058,
			"type":"VEC3"
		},
		{
			"bufferView":3,
			"componentType":5123,
			"count":66033,
			"type":"SCALAR"
		},
		{
			"bufferView":5,
			"componentType":5126,
			"count":4,
			"max":[
				1,
				0,
				1
			],
			"min":[
				-1,
				0,
				-1
			],
			"type":"VEC3"
		},
		{
			"bufferView":6,
			"componentType":5126,
			"count":4,
			"type":"VEC2"
		},
		{
			"bufferView":7,
			"componentType":5126,
			"count":4,
			"type":"VEC3"
		},
		{
			"bufferView":8,
			"componentType":5123,
			"count":6,
			"type":"SCALAR"
		}
	],
	"bufferViews":[
		{
			"buffer":0,
			"byteLength":420696,
			"byteOffset":0,
			"target":34962
		},
		{
			"buffer":0,
			"byteLength":280464,
			"byteOffset":420696,
			"target":34962
		},
		{
			"buffer":0,
			"byteLength":420696,
			"byteOffset":701160,
			"target":34962
		},
		{
			"buffer":0,
			"byteLength":132066,
			"byteOffset":1121856,
			"target":34963
		},
		{
			"buffer":0,
			"byteLength":376486,
			"byteOffset":1253924
		},
		{
			"buffer":0,
			"byteLength":48,
			"byteOffset":1630412,
			"target":34962
		},
		{
			"buffer":0,
			"byteLength":32,
			"byteOffset":1630460,
			"target":34962
		},
		{
			"buffer":0,
			"byteLength":48,
			"byteOffset":1630492,
			"target":34962
		},
		{
			"buffer":0,
			"byteLength":12,
			"byteOffset":1630540,
			"target":34963
		}
	],
	"samplers":[
		{
			"magFilter":9729,
			"minFilter":9987
		}
	],
	"buffers":[
		{
			"byteLength":1630552,
			"uri":"data:application/octet-stream;base64,"
		}
	]
}
