{
	"asset":{
		"generator":"Khronos glTF Blender I/O v3.6.27",
		"version":"2.0"
	},
	"extensionsUsed":[
		"KHR_lights_punctual"
	],
	"extensionsRequired":[
		"KHR_lights_punctual"
	],
	"extensions":{
		"KHR_lights_punctual":{
			"lights":[
				{
					"color":[
						1,
						1,
						1
					],
					"intensity":543.5141306588226,
					"type":"point",
					"name":"Point",
					"extras":{
						"intensity":2.0,
						"decay":1.5,
						"distance":20.0
					}
				},
				{
					"color":[
						1,
						1,
						1
					],
					"intensity":543.5141306588226,
					"type":"point",
					"name":"Point.001",
					"extras":{
						"intensity":1.0,
						"decay":1.5,
						"distance":20.0
					}
				}
			]
		}
	},
	"scene":0,
	"scenes":[
		{
			"name":"Scene",
			"nodes":[
				0,
				1,
				2,
				3,
				4,
				5,
				6,
				7
			]
		}
	],
	"nodes":[
		{
			"camera":0,
			"name":"Camera",
			"rotation":[
				-0.12265326827764511,
				-0.5373479723930359,
				-0.07934838533401489,
				0.8306125402450562
			],
			"translation":[
				-9.344072341918945,
				2.702566385269165,
				4.574126243591309
			]
		},
		{
			"mesh":0,
			"name":"Cube",
			"translation":[
				2,
				0,
				0
			]
		},
		{
			"mesh":1,
			"name":"Sphere",
			"translation":[
				-2,
				0,
				0
			]
		},
		{
			"mesh":2,
			"name":"Cylinder",
			"translation":[
				0,
				0,
				-2
			]
		},
		{
			"mesh":3,
			"name":"Cone",
			"translation":[
				0,
				0,
				2
			]
		},
		{
			"extensions":{
				"KHR_lights_punctual":{
					"light":0
				}
			},
			"extras":{
				"distance":20.0,
				"intensity":4.0,
				"decay":1.0
			},
			"name":"Point",
			"rotation":[
				-0.7071068286895752,
				0,
				0,
				0.7071068286895752
			],
			"translation":[
				-2.602012872695923,
				1.6711339950561523,
				4.5242204666137695
			]
		},
		{
			"mesh":4,
			"name":"Plane",
			"scale":[
				3.710883617401123,
				3.710883617401123,
				3.710883617401123
			],
			"translation":[
				0,
				-1,
				0
			]
		},
		{
			"extensions":{
				"KHR_lights_punctual":{
					"light":1
				}
			},
			"extras":{
				"distance":20.0,
				"intensity":4.0,
				"decay":1.0
			},
			"name":"Point.001",
			"rotation":[
				-0.7071068286895752,
				0,
				0,
				0.7071068286895752
			],
			"translation":[
				-3.0739195346832275,
				1.6711339950561523,
				-2.7510056495666504
			]
		}
	],
	"cameras":[
		{
			"name":"Camera.001",
			"perspective":{
				"aspectRatio":1.7777777777777777,
				"yfov":0.39959651231765747,
				"zfar":100,
				"znear":0.10000000149011612
			},
			"type":"perspective"
		}
	],
	"materials":[
		{
			"doubleSided":true,
			"name":"green",
			"pbrMetallicRoughness":{
				"baseColorFactor":[
					0.5055031180381775,
					1,
					0.5837441682815552,
					1
				],
				"metallicFactor":0.29816514253616333
			}
		},
		{
			"doubleSided":true,
			"name":"red",
			"pbrMetallicRoughness":{
				"baseColorFactor":[
					1,
					0.3647935390472412,
					0.3647935390472412,
					1
				],
				"metallicFactor":0.25229358673095703,
				"roughnessFactor":0.5
			}
		},
		{
			"doubleSided":true,
			"name":"yellow",
			"pbrMetallicRoughness":{
				"baseColorFactor":[
					1,
					0.9377917051315308,
					0.5293796062469482,
					1
				],
				"metallicFactor":0.2706422209739685,
				"roughnessFactor":0.5
			}
		},
		{
			"doubleSided":true,
			"name":"blue",
			"pbrMetallicRoughness":{
				"baseColorFactor":[
					0.3407718539237976,
					0.5940322875976562,
					1,
					1
				],
				"metallicFactor":0.2889908254146576,
				"roughnessFactor":0.5
			}
		},
		{
			"doubleSided":true,
			"name":"Material.001",
			"pbrMetallicRoughness":{
				"baseColorFactor":[
					0.800000011920929,
					0.800000011920929,
					0.800000011920929,
					1
				],
				"metallicFactor":0,
				"roughnessFactor":0.5
			}
		}
	],
	"meshes":[
		{
			"name":"Cube.001",
			"primitives":[
				{
					"attributes":{
						"POSITION":0,
						"NORMAL":1,
						"TEXCOORD_0":2
					},
					"indices":3,
					"material":0
				}
			]
		},
		{
			"name":"Sphere",
			"primitives":[
				{
					"attributes":{
						"POSITION":4,
						"NORMAL":5,
						"TEXCOORD_0":6
					},
					"indices":7,
					"material":1
				}
			]
		},
		{
			"name":"Cylinder",
			"primitives":[
				{
					"attributes":{
						"POSITION":8,
						"NORMAL":9,
						"TEXCOORD_0":10
					},
					"indices":11,
					"material":2
				}
			]
		},
		{
			"name":"Cone",
			"primitives":[
				{
					"attributes":{
						"POSITION":12,
						"NORMAL":13,
						"TEXCOORD_0":14
					},
					"indices":15,
					"material":3
				}
			]
		},
		{
			"name":"Plane",
			"primitives":[
				{
					"attributes":{
						"POSITION":16,
						"NORMAL":17,
						"TEXCOORD_0":18
					},
					"indices":19,
					"material":4
				}
			]
		}
	],
	"accessors":[
		{
			"bufferView":0,
			"componentType":5126,
			"count":24,
			"max":[
				1,
				1,
				1
			],
			"min":[
				-1,
				-1,
				-1
			],
			"type":"VEC3"
		},
		{
			"bufferView":1,
			"componentType":5126,
			"count":24,
			"type":"VEC3"
		},
		{
			"bufferView":2,
			"componentType":5126,
			"count":24,
			"type":"VEC2"
		},
		{
			"bufferView":3,
			"componentType":5123,
			"count":36,
			"type":"SCALAR"
		},
		{
			"bufferView":4,
			"componentType":5126,
			"count":559,
			"max":[
				0.9999997019767761,
				1,
				0.9999993443489075
			],
			"min":[
				-0.9999990463256836,
				-1,
				-1
			],
			"type":"VEC3"
		},
		{
			"bufferView":5,
			"componentType":5126,
			"count":559,
			"type":"VEC3"
		},
		{
			"bufferView":6,
			"componentType":5126,
			"count":559,
			"type":"VEC2"
		},
		{
			"bufferView":7,
			"componentType":5123,
			"count":2880,
			"type":"SCALAR"
		},
		{
			"bufferView":8,
			"componentType":5126,
			"count":130,
			"max":[
				1,
				1,
				1
			],
			"min":[
				-1,
				-1,
				-1
			],
			"type":"VEC3"
		},
		{
			"bufferView":9,
			"componentType":5126,
			"count":130,
			"type":"VEC3"
		},
		{
			"bufferView":10,
			"componentType":5126,
			"count":130,
			"type":"VEC2"
		},
		{
			"bufferView":11,
			"componentType":5123,
			"count":372,
			"type":"SCALAR"
		},
		{
			"bufferView":12,
			"componentType":5126,
			"count":65,
			"max":[
				1,
				1,
				1
			],
			"min":[
				-1,
				-1,
				-1
			],
			"type":"VEC3"
		},
		{
			"bufferView":13,
			"componentType":5126,
			"count":65,
			"type":"VEC3"
		},
		{
			"bufferView":14,
			"componentType":5126,
			"count":65,
			"type":"VEC2"
		},
		{
			"bufferView":15,
			"componentType":5123,
			"count":186,
			"type":"SCALAR"
		},
		{
			"bufferView":16,
			"componentType":5126,
			"count":4,
			"max":[
				1,
				0,
				1
			],
			"min":[
				-1,
				0,
				-1
			],
			"type":"VEC3"
		},
		{
			"bufferView":17,
			"componentType":5126,
			"count":4,
			"type":"VEC3"
		},
		{
			"bufferView":18,
			"componentType":5126,
			"count":4,
			"type":"VEC2"
		},
		{
			"bufferView":19,
			"componentType":5123,
			"count":6,
			"type":"SCALAR"
		}
	],
	"bufferViews":[
		{
			"buffer":0,
			"byteLength":288,
			"byteOffset":0,
			"target":34962
		},
		{
			"buffer":0,
			"byteLength":288,
			"byteOffset":288,
			"target":34962
		},
		{
			"buffer":0,
			"byteLength":192,
			"byteOffset":576,
			"target":34962
		},
		{
			"buffer":0,
			"byteLength":72,
			"byteOffset":768,
			"target":34963
		},
		{
			"buffer":0,
			"byteLength":6708,
			"byteOffset":840,
			"target":34962
		},
		{
			"buffer":0,
			"byteLength":6708,
			"byteOffset":7548,
			"target":34962
		},
		{
			"buffer":0,
			"byteLength":4472,
			"byteOffset":14256,
			"target":34962
		},
		{
			"buffer":0,
			"byteLength":5760,
			"byteOffset":18728,
			"target":34963
		},
		{
			"buffer":0,
			"byteLength":1560,
			"byteOffset":24488,
			"target":34962
		},
		{
			"buffer":0,
			"byteLength":1560,
			"byteOffset":26048,
			"target":34962
		},
		{
			"buffer":0,
			"byteLength":1040,
			"byteOffset":27608,
			"target":34962
		},
		{
			"buffer":0,
			"byteLength":744,
			"byteOffset":28648,
			"target":34963
		},
		{
			"buffer":0,
			"byteLength":780,
			"byteOffset":29392,
			"target":34962
		},
		{
			"buffer":0,
			"byteLength":780,
			"byteOffset":30172,
			"target":34962
		},
		{
			"buffer":0,
			"byteLength":520,
			"byteOffset":30952,
			"target":34962
		},
		{
			"buffer":0,
			"byteLength":372,
			"byteOffset":31472,
			"target":34963
		},
		{
			"buffer":0,
			"byteLength":48,
			"byteOffset":31844,
			"target":34962
		},
		{
			"buffer":0,
			"byteLength":48,
			"byteOffset":31892,
			"target":34962
		},
		{
			"buffer":0,
			"byteLength":32,
			"byteOffset":31940,
			"target":34962
		},
		{
			"buffer":0,
			"byteLength":12,
			"byteOffset":31972,
			"target":34963
		}
	],
	"buffers":[
		{
			"byteLength":31984,
			"uri":"data:application/octet-stream;base64,"
		}
	]
}
