{
	"asset":{
		"generator":"Khronos glTF Blender I/O v3.6.27",
		"version":"2.0"
	},
	"extensionsUsed":[
		"KHR_lights_punctual"
	],
	"extensionsRequired":[
		"KHR_lights_punctual"
	],
	"extensions":{
		"KHR_lights_punctual":{
			"lights":[
				{
					"color":[
						1,
						1,
						1
					],
					"intensity":54351.41306588226,
					"type":"point",
					"name":"Point.001",
					"extras":{
						"intensity":1.0,
						"decay":0.0,
						"distance":20.0
					}
				},
				{
					"color":[
						1,
						1,
						1
					],
					"intensity":54351.41306588226,
					"type":"point",
					"name":"Point.002",
					"extras":{
						"intensity":0.800000011920929,
						"decay":0.0,
						"distance":20.0
					}
				}
			]
		}
	},
	"scene":0,
	"scenes":[
		{
			"name":"Scene",
			"nodes":[
				0,
				1,
				2,
				3,
				4,
				5,
				6,
				7
			]
		}
	],
	"nodes":[
		{
			"mesh":0,
			"name":"Cube",
			"translation":[
				0.5934433937072754,
				1,
				-1.9881172180175781
			]
		},
		{
			"camera":0,
			"name":"Camera",
			"rotation":[
				-0.0717424675822258,
				0.20053793489933014,
				0.014726515859365463,
				0.976944625377655
			],
			"translation":[
				5.357928276062012,
				2.9264612197875977,
				12.276347160339355
			]
		},
		{
			"mesh":1,
			"name":"Plane",
			"scale":[
				5,
				5,
				5
			]
		},
		{
			"mesh":2,
			"name":"Sphere",
			"translation":[
				-0.004858732223510742,
				1,
				1.736407995223999
			]
		},
		{
			"mesh":3,
			"name":"Cylinder",
			"translation":[
				-2.397092342376709,
				1,
				-0.6934026479721069
			]
		},
		{
			"mesh":4,
			"name":"Cone",
			"translation":[
				2.4284591674804688,
				1,
				0.09049332141876221
			]
		},
		{
			"extensions":{
				"KHR_lights_punctual":{
					"light":0
				}
			},
			"name":"Point.001",
			"rotation":[
				-0.7071068286895752,
				0,
				0,
				0.7071068286895752
			],
			"translation":[
				2.0026626586914062,
				3,
				2.522376775741577
			]
		},
		{
			"extensions":{
				"KHR_lights_punctual":{
					"light":1
				}
			},
			"name":"Point.002",
			"rotation":[
				-0.7071068286895752,
				0,
				0,
				0.7071068286895752
			],
			"translation":[
				-2.369999885559082,
				1.0299999713897705,
				3.444999933242798
			]
		}
	],
	"cameras":[
		{
			"name":"Camera",
			"perspective":{
				"aspectRatio":1.7777777777777777,
				"yfov":0.39959652046304894,
				"zfar":20,
				"znear":0.10000000149011612
			},
			"type":"perspective"
		}
	],
	"materials":[
		{
			"doubleSided":true,
			"name":"Yellow",
			"pbrMetallicRoughness":{
				"baseColorFactor":[
					0.8000000715255737,
					0.705944299697876,
					0,
					1
				],
				"metallicFactor":0.5,
				"roughnessFactor":0.5
			}
		},
		{
			"doubleSided":true,
			"name":"Grey",
			"pbrMetallicRoughness":{
				"baseColorFactor":[
					0.5204386711120605,
					0.5204386711120605,
					0.5204386711120605,
					1
				],
				"metallicFactor":0,
				"roughnessFactor":0.5
			}
		},
		{
			"doubleSided":true,
			"name":"Green",
			"pbrMetallicRoughness":{
				"baseColorFactor":[
					0.06789154559373856,
					0.8000000715255737,
					0.20700067281723022,
					1
				],
				"metallicFactor":0,
				"roughnessFactor":0.5
			}
		},
		{
			"doubleSided":true,
			"name":"Red",
			"pbrMetallicRoughness":{
				"baseColorFactor":[
					0.8000000715255737,
					0.11473172158002853,
					0.1004357561469078,
					1
				],
				"metallicFactor":0,
				"roughnessFactor":0.5
			}
		},
		{
			"doubleSided":true,
			"name":"Blue",
			"pbrMetallicRoughness":{
				"baseColorFactor":[
					0.026180850341916084,
					0.3290295898914337,
					0.8000000715255737,
					1
				],
				"metallicFactor":0,
				"roughnessFactor":0.5
			}
		}
	],
	"meshes":[
		{
			"name":"Cube",
			"primitives":[
				{
					"attributes":{
						"POSITION":0,
						"NORMAL":1,
						"TEXCOORD_0":2
					},
					"indices":3,
					"material":0
				}
			]
		},
		{
			"name":"Plane",
			"primitives":[
				{
					"attributes":{
						"POSITION":4,
						"NORMAL":5,
						"TEXCOORD_0":6
					},
					"indices":7,
					"material":1
				}
			]
		},
		{
			"name":"Sphere",
			"primitives":[
				{
					"attributes":{
						"POSITION":8,
						"NORMAL":9,
						"TEXCOORD_0":10
					},
					"indices":11,
					"material":2
				}
			]
		},
		{
			"name":"Cylinder",
			"primitives":[
				{
					"attributes":{
						"POSITION":12,
						"NORMAL":13,
						"TEXCOORD_0":14
					},
					"indices":15,
					"material":3
				}
			]
		},
		{
			"name":"Cone",
			"primitives":[
				{
					"attributes":{
						"POSITION":16,
						"NORMAL":17,
						"TEXCOORD_0":18
					},
					"indices":19,
					"material":4
				}
			]
		}
	],
	"accessors":[
		{
			"bufferView":0,
			"componentType":5126,
			"count":24,
			"max":[
				1,
				1,
				1
			],
			"min":[
				-1,
				-1,
				-1
			],
			"type":"VEC3"
		},
		{
			"bufferView":1,
			"componentType":5126,
			"count":24,
			"type":"VEC3"
		},
		{
			"bufferView":2,
			"componentType":5126,
			"count":24,
			"type":"VEC2"
		},
		{
			"bufferView":3,
			"componentType":5123,
			"count":36,
			"type":"SCALAR"
		},
		{
			"bufferView":4,
			"componentType":5126,
			"count":4,
			"max":[
				1,
				0,
				1
			],
			"min":[
				-1,
				0,
				-1
			],
			"type":"VEC3"
		},
		{
			"bufferView":5,
			"componentType":5126,
			"count":4,
			"type":"VEC3"
		},
		{
			"bufferView":6,
			"componentType":5126,
			"count":4,
			"type":"VEC2"
		},
		{
			"bufferView":7,
			"componentType":5123,
			"count":6,
			"type":"SCALAR"
		},
		{
			"bufferView":8,
			"componentType":5126,
			"count":1984,
			"max":[
				0.9999997019767761,
				1,
				0.9999993443489075
			],
			"min":[
				-0.9999990463256836,
				-1,
				-1
			],
			"type":"VEC3"
		},
		{
			"bufferView":9,
			"componentType":5126,
			"count":1984,
			"type":"VEC3"
		},
		{
			"bufferView":10,
			"componentType":5126,
			"count":1984,
			"type":"VEC2"
		},
		{
			"bufferView":11,
			"componentType":5123,
			"count":2880,
			"type":"SCALAR"
		},
		{
			"bufferView":12,
			"componentType":5126,
			"count":130,
			"max":[
				1,
				1,
				1
			],
			"min":[
				-1,
				-1,
				-1
			],
			"type":"VEC3"
		},
		{
			"bufferView":13,
			"componentType":5126,
			"count":130,
			"type":"VEC3"
		},
		{
			"bufferView":14,
			"componentType":5126,
			"count":130,
			"type":"VEC2"
		},
		{
			"bufferView":15,
			"componentType":5123,
			"count":372,
			"type":"SCALAR"
		},
		{
			"bufferView":16,
			"componentType":5126,
			"count":65,
			"max":[
				1,
				1,
				1
			],
			"min":[
				-1,
				-1,
				-1
			],
			"type":"VEC3"
		},
		{
			"bufferView":17,
			"componentType":5126,
			"count":65,
			"type":"VEC3"
		},
		{
			"bufferView":18,
			"componentType":5126,
			"count":65,
			"type":"VEC2"
		},
		{
			"bufferView":19,
			"componentType":5123,
			"count":186,
			"type":"SCALAR"
		}
	],
	"bufferViews":[
		{
			"buffer":0,
			"byteLength":288,
			"byteOffset":0,
			"target":34962
		},
		{
			"buffer":0,
			"byteLength":288,
			"byteOffset":288,
			"target":34962
		},
		{
			"buffer":0,
			"byteLength":192,
			"byteOffset":576,
			"target":34962
		},
		{
			"buffer":0,
			"byteLength":72,
			"byteOffset":768,
			"target":34963
		},
		{
			"buffer":0,
			"byteLength":48,
			"byteOffset":840,
			"target":34962
		},
		{
			"buffer":0,
			"byteLength":48,
			"byteOffset":888,
			"target":34962
		},
		{
			"buffer":0,
			"byteLength":32,
			"byteOffset":936,
			"target":34962
		},
		{
			"buffer":0,
			"byteLength":12,
			"byteOffset":968,
			"target":34963
		},
		{
			"buffer":0,
			"byteLength":23808,
			"byteOffset":980,
			"target":34962
		},
		{
			"buffer":0,
			"byteLength":23808,
			"byteOffset":24788,
			"target":34962
		},
		{
			"buffer":0,
			"byteLength":15872,
			"byteOffset":48596,
			"target":34962
		},
		{
			"buffer":0,
			"byteLength":5760,
			"byteOffset":64468,
			"target":34963
		},
		{
			"buffer":0,
			"byteLength":1560,
			"byteOffset":70228,
			"target":34962
		},
		{
			"buffer":0,
			"byteLength":1560,
			"byteOffset":71788,
			"target":34962
		},
		{
			"buffer":0,
			"byteLength":1040,
			"byteOffset":73348,
			"target":34962
		},
		{
			"buffer":0,
			"byteLength":744,
			"byteOffset":74388,
			"target":34963
		},
		{
			"buffer":0,
			"byteLength":780,
			"byteOffset":75132,
			"target":34962
		},
		{
			"buffer":0,
			"byteLength":780,
			"byteOffset":75912,
			"target":34962
		},
		{
			"buffer":0,
			"byteLength":520,
			"byteOffset":76692,
			"target":34962
		},
		{
			"buffer":0,
			"byteLength":372,
			"byteOffset":77212,
			"target":34963
		}
	],
	"buffers":[
		{
			"byteLength":77584,
			"uri":"data:application/octet-stream;base64,"
		}
	]
}
