{
	"asset":{
		"generator":"Khronos glTF Blender I/O v3.6.27",
		"version":"2.0"
	},
	"extensionsUsed":[
		"KHR_lights_punctual"
	],
	"extensionsRequired":[
		"KHR_lights_punctual"
	],
	"extensions":{
		"KHR_lights_punctual":{
			"lights":[
				{
					"color":[
						1,
						1,
						1
					],
					"intensity":54351.41306588226,
					"type":"point",
					"name":"Light",
					"extras":{
						"intensity":2.0,
						"decay":1.2000000476837158,
						"distance":10.0
					}
				}
			]
		}
	},
	"scene":0,
	"scenes":[
		{
			"name":"Scene",
			"nodes":[
				0,
				1,
				2
			]
		}
	],
	"nodes":[
		{
			"extensions":{
				"KHR_lights_punctual":{
					"light":0
				}
			},
			"name":"Light",
			"rotation":[
				-0.28416627645492554,
				0.7269423007965088,
				0.34203392267227173,
				0.5232754945755005
			],
			"translation":[
				7.172148704528809,
				5.903861999511719,
				3.8346195220947266
			]
		},
		{
			"camera":0,
			"name":"Camera",
			"rotation":[
				-0.20997299253940582,
				0.3857799470424652,
				0.09062844514846802,
				0.8937962055206299
			],
			"translation":[
				7.358891487121582,
				4.958309173583984,
				6.925790786743164
			]
		},
		{
			"mesh":0,
			"name":"Cylinder",
			"rotation":[
				0,
				0.4160541594028473,
				0,
				0.9093398451805115
			],
			"scale":[
				0.3571370244026184,
				0.357136994600296,
				0.3571370244026184
			],
			"translation":[
				1.799038052558899,
				1.006822943687439,
				1.7559086084365845
			]
		}
	],
	"cameras":[
		{
			"name":"Camera",
			"perspective":{
				"aspectRatio":1.7777777777777777,
				"yfov":0.39959652046304894,
				"zfar":100,
				"znear":0.10000000149011612
			},
			"type":"perspective"
		}
	],
	"materials":[
		{
			"doubleSided":true,
			"name":"Material.001",
			"pbrMetallicRoughness":{
				"baseColorFactor":[
					0.21389736235141754,
					0.8000000715255737,
					0.2761169970035553,
					1
				],
				"metallicFactor":0,
				"roughnessFactor":0.5
			}
		},
		{
			"doubleSided":true,
			"name":"Material.002",
			"pbrMetallicRoughness":{
				"baseColorTexture":{
					"index":0
				},
				"metallicFactor":0,
				"roughnessFactor":0.5
			}
		}
	],
	"meshes":[
		{
			"name":"Cylinder",
			"primitives":[
				{
					"attributes":{
						"POSITION":0,
						"NORMAL":1,
						"TEXCOORD_0":2
					},
					"indices":3,
					"material":0
				},
				{
					"attributes":{
						"POSITION":4,
						"NORMAL":5,
						"TEXCOORD_0":6
					},
					"indices":7,
					"material":1
				}
			]
		}
	],
	"textures":[
		{
			"sampler":0,
			"source":0
		}
	],
	"images":[
		{
			"bufferView":8,
			"mimeType":"image/jpeg",
			"name":"artleav-artleav-froggo"
		}
	],
	"accessors":[
		{
			"bufferView":0,
			"componentType":5126,
			"count":1065,
			"max":[
				0.9999999403953552,
				4.83588171005249,
				1
			],
			"min":[
				-1,
				-3.128777027130127,
				-1
			],
			"type":"VEC3"
		},
		{
			"bufferView":1,
			"componentType":5126,
			"count":1065,
			"type":"VEC3"
		},
		{
			"bufferView":2,
			"componentType":5126,
			"count":1065,
			"type":"VEC2"
		},
		{
			"bufferView":3,
			"componentType":5123,
			"count":5508,
			"type":"SCALAR"
		},
		{
			"bufferView":4,
			"componentType":5126,
			"count":91,
			"max":[
				0.9238795042037964,
				-0.3714132308959961,
				1
			],
			"min":[
				-0.9238795638084412,
				-1.8033244609832764,
				0.3826834559440613
			],
			"type":"VEC3"
		},
		{
			"bufferView":5,
			"componentType":5126,
			"count":91,
			"type":"VEC3"
		},
		{
			"bufferView":6,
			"componentType":5126,
			"count":91,
			"type":"VEC2"
		},
		{
			"bufferView":7,
			"componentType":5123,
			"count":432,
			"type":"SCALAR"
		}
	],
	"bufferViews":[
		{
			"buffer":0,
			"byteLength":12780,
			"byteOffset":0,
			"target":34962
		},
		{
			"buffer":0,
			"byteLength":12780,
			"byteOffset":12780,
			"target":34962
		},
		{
			"buffer":0,
			"byteLength":8520,
			"byteOffset":25560,
			"target":34962
		},
		{
			"buffer":0,
			"byteLength":11016,
			"byteOffset":34080,
			"target":34963
		},
		{
			"buffer":0,
			"byteLength":1092,
			"byteOffset":45096,
			"target":34962
		},
		{
			"buffer":0,
			"byteLength":1092,
			"byteOffset":46188,
			"target":34962
		},
		{
			"buffer":0,
			"byteLength":728,
			"byteOffset":47280,
			"target":34962
		},
		{
			"buffer":0,
			"byteLength":864,
			"byteOffset":48008,
			"target":34963
		},
		{
			"buffer":0,
			"byteLength":207594,
			"byteOffset":48872
		}
	],
	"samplers":[
		{
			"magFilter":9729,
			"minFilter":9987
		}
	],
	"buffers":[
		{
			"byteLength":256468,
			"uri":"data:application/octet-stream;base64,"
		}
	]
}
